# xmcd
# 
# Track frame offsets:
#     150
#     14752
#     52747
#     85400
#     104767
#     119345
#     134249
#     149193
# 
# Disc length: 2261
# 
# Revision: 4
# Processed by: cddbd v1.5.2PL0 Copyright (c) Steve Scherf et al.
# Submitted via: fre:ac v1.1beta1pre4
# 
DISCID=8008d308
DTITLE=Nalepa Tadeusz - Nalepa Tadeusz_To Moj Blues
DYEAR=1989
DGENRE=Blues
TTITLE0=Swiety Boze nie pomoze
TTITLE1=Jedz ostroznie, nie popedzaj kol
TTITLE2=Musisz walczyc, musisz wierzyc
TTITLE3=Dzielo twoich rak
TTITLE4=Nauczylem sie niewiary
TTITLE5=Nie uciekaj, dokad uciec chcesz
TTITLE6=Nie takich ludzi znałes
TTITLE7=To moj blues
EXTD=YEAR: 2014
EXTT0=
EXTT1=
EXTT2=
EXTT3=
EXTT4=
EXTT5=
EXTT6=
EXTT7=
PLAYORDER=
